<svg xmlns="http://www.w3.org/2000/svg" xmlns:xlink="http://www.w3.org/1999/xlink" id="svg" version="1.1" viewBox="126.67 89.59 158.18 242.59"><g id="svgg"><path id="path0" d="M129.664 100.600 L 129.733 111.600 146.600 111.669 C 155.877 111.706,163.467 111.819,163.467 111.918 C 163.467 112.018,163.244 112.347,162.973 112.649 C 162.701 112.952,161.341 114.700,159.951 116.533 C 157.485 119.784,151.803 127.151,151.069 128.049 C 150.867 128.296,150.484 128.832,150.218 129.239 C 149.951 129.647,149.486 130.248,149.183 130.576 C 148.880 130.903,147.560 132.588,146.250 134.319 C 144.940 136.050,143.664 137.707,143.415 138.000 C 143.167 138.293,141.633 140.273,140.007 142.400 C 138.381 144.527,136.725 146.677,136.326 147.179 C 135.927 147.682,134.308 149.782,132.729 151.846 C 131.150 153.911,129.710 155.780,129.528 156.000 C 127.863 158.019,128.000 157.051,128.000 166.836 L 128.000 175.733 162.267 175.733 L 196.533 175.733 196.533 164.667 L 196.533 153.600 178.400 153.600 C 162.317 153.600,159.377 153.505,160.467 153.022 C 160.708 152.916,163.467 149.405,163.467 149.206 C 163.467 149.129,163.677 148.848,163.933 148.581 C 164.190 148.314,164.719 147.684,165.109 147.181 C 166.313 145.630,168.898 142.266,169.600 141.338 C 169.967 140.854,170.987 139.536,171.867 138.410 C 172.747 137.284,173.767 135.964,174.133 135.477 C 174.500 134.989,175.520 133.669,176.400 132.544 C 177.280 131.418,178.300 130.094,178.667 129.601 C 179.033 129.108,179.587 128.396,179.896 128.019 C 180.206 127.642,181.311 126.193,182.351 124.800 C 183.392 123.407,184.413 122.087,184.621 121.867 C 184.829 121.647,185.849 120.327,186.888 118.933 C 187.926 117.540,188.946 116.220,189.154 116.000 C 189.362 115.780,190.388 114.460,191.433 113.067 C 192.478 111.673,193.724 110.071,194.200 109.505 C 195.763 107.650,195.714 108.006,195.724 98.467 L 195.733 89.600 162.664 89.600 L 129.594 89.600 129.664 100.600 M209.867 132.664 L 209.867 175.733 222.400 175.733 L 234.933 175.733 234.933 163.600 L 234.933 151.467 239.598 151.467 L 244.263 151.467 246.047 155.000 C 247.029 156.943,247.858 158.678,247.891 158.854 C 247.923 159.030,249.212 161.610,250.755 164.587 C 252.298 167.564,254.200 171.260,254.981 172.800 L 256.400 175.600 270.623 175.669 L 284.846 175.738 284.322 174.869 C 284.034 174.391,283.424 173.310,282.966 172.467 C 281.522 169.808,280.634 168.182,279.759 166.593 C 279.292 165.746,278.559 164.394,278.130 163.589 C 277.702 162.783,276.991 161.464,276.551 160.657 C 276.111 159.851,275.391 158.531,274.951 157.724 C 273.013 154.172,272.551 153.317,271.210 150.800 C 270.428 149.333,269.626 147.897,269.427 147.607 C 268.889 146.822,268.921 146.774,270.867 145.485 C 273.757 143.570,276.948 140.304,278.764 137.400 C 279.154 136.777,279.382 136.265,279.270 136.263 C 279.158 136.260,279.195 136.170,279.352 136.063 C 279.908 135.680,282.085 130.400,281.686 130.400 C 281.603 130.400,281.661 130.248,281.815 130.062 C 283.887 127.565,283.016 111.169,280.610 107.384 C 280.499 107.210,280.399 107.007,280.388 106.933 C 279.604 101.779,270.562 93.955,262.509 91.463 C 256.836 89.708,255.720 89.641,231.533 89.616 L 209.867 89.594 209.867 132.664 M249.600 110.441 C 256.998 111.789,260.370 119.857,256.379 126.666 C 254.174 130.429,251.263 131.333,241.000 131.441 L 234.400 131.511 234.400 120.814 L 234.400 110.117 241.267 110.146 C 245.043 110.161,248.793 110.294,249.600 110.441 M126.667 226.933 L 126.667 266.667 138.200 266.667 L 149.733 266.667 149.662 251.594 L 149.591 236.522 154.576 236.594 L 159.560 236.667 163.592 244.667 C 165.810 249.067,169.220 255.817,171.170 259.667 L 174.716 266.667 188.025 266.667 C 195.344 266.667,201.333 266.571,201.333 266.453 C 201.333 266.336,201.228 266.126,201.100 265.987 C 200.972 265.847,200.174 264.413,199.327 262.800 C 198.480 261.187,197.700 259.747,197.594 259.600 C 197.488 259.453,196.860 258.313,196.199 257.067 C 195.537 255.820,194.248 253.420,193.334 251.733 C 192.419 250.047,191.219 247.827,190.667 246.800 C 186.332 238.741,185.854 237.884,185.359 237.267 C 185.153 237.010,185.053 236.800,185.137 236.800 C 185.220 236.800,184.830 235.990,184.270 235.000 C 183.709 234.010,182.650 232.038,181.915 230.619 L 180.580 228.037 181.718 226.485 C 183.303 224.324,185.729 219.823,186.650 217.333 C 186.840 216.820,187.148 216.040,187.334 215.600 C 187.988 214.053,189.600 209.868,189.600 209.718 C 189.600 209.634,189.912 208.884,190.294 208.050 C 190.676 207.216,191.287 205.753,191.652 204.800 C 192.017 203.847,192.441 202.767,192.594 202.400 C 192.746 202.033,192.975 201.463,193.102 201.133 C 193.229 200.803,193.469 200.203,193.636 199.800 C 193.802 199.397,194.042 198.797,194.169 198.467 C 194.296 198.137,194.504 197.597,194.631 197.267 C 194.758 196.937,195.014 196.307,195.200 195.867 C 195.386 195.427,195.630 194.827,195.743 194.533 C 195.856 194.240,196.551 192.470,197.286 190.600 L 198.624 187.200 186.278 187.200 C 176.719 187.200,173.873 187.275,173.670 187.533 C 173.526 187.717,173.219 188.407,172.988 189.067 C 172.205 191.302,170.876 195.065,170.727 195.467 C 170.646 195.687,170.559 195.927,170.533 196.000 C 170.508 196.073,170.396 196.373,170.284 196.667 C 169.791 197.963,169.267 199.404,167.989 202.978 C 165.417 210.169,164.416 212.195,162.903 213.273 C 162.641 213.459,162.268 213.771,162.074 213.964 C 161.148 214.891,158.259 215.448,153.395 215.640 L 149.591 215.790 149.662 201.495 L 149.733 187.200 138.200 187.200 L 126.667 187.200 126.667 226.933 M211.796 214.867 L 211.881 241.733 212.494 244.533 C 214.835 255.231,220.587 262.894,229.409 267.073 C 230.795 267.730,232.100 268.267,232.311 268.267 C 232.521 268.267,232.807 268.373,232.947 268.504 C 233.299 268.834,235.667 269.473,238.667 270.048 C 241.851 270.658,252.177 270.742,254.933 270.180 C 255.887 269.985,257.267 269.702,258.000 269.550 C 259.839 269.170,262.398 268.334,262.836 267.970 C 263.036 267.804,263.200 267.744,263.200 267.837 C 263.200 267.993,267.186 266.021,268.399 265.265 C 270.691 263.837,274.538 260.227,276.031 258.104 C 276.381 257.607,276.744 257.140,276.838 257.067 C 277.548 256.515,279.779 251.843,280.819 248.730 C 282.545 243.563,282.487 244.664,282.591 215.000 L 282.686 188.000 271.076 188.000 L 259.467 188.000 259.446 211.000 C 259.435 223.650,259.392 234.180,259.352 234.400 C 259.311 234.620,259.195 235.814,259.095 237.053 C 258.934 239.031,257.840 243.082,257.363 243.467 C 257.272 243.540,256.859 244.054,256.446 244.608 C 252.377 250.065,241.833 250.092,237.975 244.654 C 236.865 243.090,236.292 241.702,235.558 238.800 C 235.447 238.360,235.317 226.750,235.269 213.000 L 235.182 188.000 223.446 188.000 L 211.710 188.000 211.796 214.867 M168.933 280.299 C 156.987 281.763,156.906 302.066,168.839 303.698 C 176.189 304.703,181.290 300.119,181.410 292.400 C 181.539 284.182,176.570 279.363,168.933 280.299 M210.038 280.288 C 208.488 280.468,205.867 281.488,205.867 281.912 C 205.867 282.034,205.701 282.133,205.498 282.133 C 204.204 282.133,201.748 286.629,201.306 289.809 C 199.974 299.379,206.289 305.485,215.333 303.372 C 219.740 302.342,222.689 297.668,222.657 291.764 C 222.636 287.795,219.879 281.867,218.055 281.867 C 217.901 281.867,217.586 281.711,217.354 281.521 C 216.138 280.523,212.826 279.965,210.038 280.288 M142.452 281.800 L 142.533 283.067 148.867 283.138 C 152.350 283.177,155.200 283.270,155.200 283.344 C 155.200 283.417,154.150 284.885,152.867 286.605 C 149.945 290.521,150.265 290.105,149.335 291.200 C 148.899 291.713,148.540 292.215,148.538 292.314 C 148.535 292.414,148.379 292.654,148.189 292.848 C 147.459 293.596,144.533 297.582,144.533 297.829 C 144.533 297.972,144.419 298.129,144.279 298.178 C 143.472 298.459,141.867 301.212,141.867 302.315 L 141.867 303.467 150.533 303.467 L 159.200 303.467 159.200 302.138 L 159.200 300.809 152.510 300.738 L 145.821 300.667 147.692 298.133 C 148.721 296.740,149.667 295.480,149.793 295.333 C 149.920 295.187,150.318 294.650,150.679 294.141 C 151.039 293.631,151.453 293.066,151.600 292.884 C 151.747 292.702,152.347 291.877,152.933 291.052 C 153.520 290.226,154.330 289.156,154.733 288.674 C 155.137 288.191,155.467 287.730,155.467 287.648 C 155.467 287.566,155.827 287.105,156.267 286.624 C 156.707 286.142,157.067 285.605,157.067 285.429 C 157.067 285.254,157.158 285.071,157.269 285.022 C 158.030 284.687,159.200 282.631,159.200 281.628 L 159.200 280.533 150.785 280.533 L 142.371 280.533 142.452 281.800 M183.733 291.974 L 183.733 303.467 185.200 303.467 L 186.667 303.467 186.667 298.667 L 186.667 293.867 189.670 293.867 L 192.674 293.867 193.243 295.133 C 193.556 295.830,194.084 297.120,194.416 298.000 C 194.749 298.880,195.099 299.720,195.195 299.867 C 195.291 300.013,195.659 300.883,196.013 301.800 L 196.657 303.467 198.329 303.467 C 199.248 303.467,200.000 303.425,200.000 303.374 C 200.000 303.324,199.832 302.934,199.626 302.508 C 199.003 301.219,198.191 299.365,197.642 297.979 C 197.357 297.257,196.795 295.951,196.394 295.075 C 195.694 293.547,195.685 293.473,196.166 293.209 C 200.814 290.654,200.873 283.596,196.267 281.171 C 195.463 280.748,194.527 280.666,189.533 280.580 L 183.733 280.481 183.733 291.974 M231.055 281.133 C 230.856 281.790,229.281 286.154,227.805 290.133 C 227.288 291.527,226.627 293.327,226.336 294.133 C 226.044 294.940,225.640 295.978,225.436 296.440 C 225.233 296.902,225.067 297.396,225.067 297.538 C 225.067 297.780,224.615 298.993,223.437 301.916 C 223.160 302.603,222.933 303.233,222.933 303.316 C 222.933 303.860,226.080 303.429,226.210 302.867 C 226.287 302.537,226.698 301.307,227.124 300.133 L 227.899 298.000 233.028 298.000 L 238.157 298.000 238.831 299.867 C 239.202 300.893,239.622 302.123,239.765 302.600 C 240.020 303.451,240.054 303.467,241.606 303.467 L 243.187 303.467 242.900 302.733 C 242.478 301.656,241.239 298.290,240.421 296.000 C 240.028 294.900,239.539 293.580,239.336 293.067 C 239.133 292.553,238.164 289.913,237.182 287.200 C 236.201 284.487,235.279 282.117,235.133 281.933 C 234.987 281.750,234.947 281.600,235.043 281.600 C 235.140 281.600,235.090 281.360,234.933 281.067 C 234.482 280.223,231.313 280.277,231.055 281.133 M244.267 292.000 L 244.267 303.467 245.733 303.467 L 247.200 303.467 247.200 298.067 L 247.200 292.667 248.142 293.733 C 248.660 294.320,249.902 295.700,250.903 296.800 C 251.904 297.900,253.192 299.345,253.766 300.012 C 256.817 303.553,256.693 303.467,258.710 303.467 C 261.172 303.467,261.524 304.055,254.400 296.271 C 254.180 296.030,253.135 294.868,252.078 293.687 L 250.156 291.540 251.621 289.970 C 252.426 289.106,253.676 287.740,254.398 286.933 C 255.120 286.127,256.731 284.387,257.978 283.067 L 260.245 280.667 258.322 280.586 L 256.400 280.505 255.504 281.519 C 254.216 282.975,250.994 286.527,249.653 287.968 C 249.022 288.645,248.318 289.470,248.089 289.800 C 247.308 290.924,247.200 290.400,247.200 285.467 L 247.200 280.533 245.733 280.533 L 244.267 280.533 244.267 292.000 M261.335 287.933 C 261.336 294.127,261.500 296.950,261.964 298.800 C 263.540 305.080,274.898 305.782,277.802 299.779 L 278.533 298.267 278.613 289.400 L 278.693 280.533 277.230 280.533 L 275.767 280.533 275.683 289.133 L 275.600 297.733 274.851 298.887 C 273.213 301.408,268.375 301.914,265.962 299.817 C 264.635 298.664,264.533 297.884,264.533 288.901 L 264.533 280.533 262.933 280.533 L 261.333 280.533 261.335 287.933 M173.957 283.591 C 179.967 286.435,179.714 299.489,173.626 300.662 C 173.317 300.721,172.967 300.830,172.849 300.903 C 170.664 302.254,165.513 300.081,164.068 297.200 C 160.023 289.138,166.587 280.105,173.957 283.591 M215.333 283.603 C 218.483 285.079,220.171 289.274,219.497 293.951 C 218.199 302.962,206.533 303.797,204.516 295.023 C 202.639 286.856,208.675 280.485,215.333 283.603 M194.740 283.726 C 196.783 284.735,197.326 288.090,195.715 289.752 C 194.547 290.958,193.569 291.197,189.800 291.199 L 186.667 291.200 186.667 287.174 L 186.667 283.149 190.333 283.255 C 192.699 283.324,194.262 283.491,194.740 283.726 M233.584 285.333 C 233.769 285.847,234.021 286.507,234.144 286.800 C 234.266 287.093,234.682 288.276,235.067 289.427 C 235.452 290.579,235.898 291.839,236.058 292.227 C 236.218 292.616,236.382 293.053,236.424 293.200 C 236.465 293.347,236.618 293.857,236.764 294.333 L 237.029 295.200 233.048 295.200 C 230.858 295.200,229.067 295.098,229.067 294.972 C 229.067 294.847,229.375 293.917,229.752 292.906 C 230.129 291.894,230.674 290.347,230.963 289.467 C 231.252 288.587,231.599 287.627,231.734 287.333 C 231.869 287.040,232.180 286.162,232.426 285.383 C 232.902 283.871,233.055 283.864,233.584 285.333 M232.533 309.413 C 232.533 309.751,232.430 310.141,232.303 310.280 C 232.176 310.419,231.946 310.893,231.792 311.333 C 231.637 311.773,231.068 313.333,230.527 314.800 C 229.986 316.267,229.080 318.727,228.515 320.267 C 227.949 321.807,226.997 324.387,226.398 326.000 C 225.800 327.613,225.274 329.053,225.229 329.200 C 225.185 329.347,225.007 329.827,224.833 330.267 C 224.660 330.707,224.465 331.217,224.400 331.400 C 224.315 331.642,224.713 331.733,225.853 331.733 L 227.422 331.733 228.333 329.000 L 229.244 326.267 234.390 326.267 L 239.535 326.267 240.506 328.933 L 241.477 331.600 243.005 331.680 C 243.846 331.724,244.532 331.724,244.530 331.680 C 244.528 331.636,244.101 330.460,243.581 329.067 C 242.276 325.570,240.918 321.866,240.010 319.333 C 239.272 317.274,238.354 314.839,237.899 313.733 C 237.661 313.154,237.271 312.046,236.609 310.067 L 236.186 308.800 234.359 308.800 C 232.632 308.800,232.533 308.833,232.533 309.413 M245.600 320.248 L 245.600 331.733 247.067 331.733 L 248.533 331.733 248.533 326.933 L 248.533 322.133 251.570 322.133 L 254.606 322.133 255.015 323.000 C 255.240 323.477,255.726 324.669,256.094 325.650 C 256.463 326.632,256.916 327.712,257.102 328.050 C 257.289 328.389,257.465 328.787,257.494 328.933 C 257.523 329.080,257.794 329.770,258.097 330.467 L 258.648 331.733 260.257 331.733 C 261.142 331.733,261.867 331.684,261.867 331.624 C 261.867 331.431,258.113 322.832,257.903 322.544 C 257.504 321.998,257.752 321.606,259.000 320.815 C 259.697 320.373,260.267 319.884,260.267 319.728 C 260.267 319.573,260.537 319.080,260.867 318.633 C 262.194 316.837,261.516 312.142,259.693 310.505 C 258.077 309.055,257.590 308.958,251.400 308.857 L 245.600 308.763 245.600 320.248 M261.919 310.067 L 262.000 311.333 265.933 311.407 L 269.867 311.481 269.867 321.607 L 269.867 331.733 271.333 331.733 L 272.800 331.733 272.800 321.600 L 272.800 311.467 276.667 311.467 L 280.533 311.467 280.533 310.133 L 280.533 308.800 271.185 308.800 L 261.837 308.800 261.919 310.067 M256.602 311.975 C 258.305 312.623,259.169 315.546,258.186 317.333 C 257.269 319.002,256.356 319.321,252.200 319.426 L 248.533 319.518 248.533 315.502 L 248.533 311.485 251.267 311.409 C 253.960 311.334,255.286 311.475,256.602 311.975 M235.006 313.533 C 235.237 314.230,236.095 316.714,236.913 319.052 C 237.731 321.391,238.400 323.341,238.400 323.386 C 238.400 323.430,236.587 323.467,234.371 323.467 C 230.641 323.467,230.357 323.432,230.531 323.000 C 230.634 322.743,230.748 322.413,230.785 322.267 C 230.822 322.120,230.919 321.820,231.001 321.600 C 231.082 321.380,231.589 319.940,232.127 318.400 C 232.664 316.860,233.336 315.038,233.619 314.351 C 233.902 313.663,234.133 312.913,234.133 312.684 C 234.133 311.847,234.596 312.298,235.006 313.533 M221.151 328.535 C 219.456 329.218,219.775 331.704,221.611 332.137 C 223.368 332.551,224.452 329.881,222.959 328.818 C 222.106 328.211,221.998 328.194,221.151 328.535 " stroke="none" fill="#f4e4dc" fill-rule="evenodd" data-darkreader-inline-fill="" data-darkreader-inline-stroke="" style="--darkreader-inline-fill: #482617; --darkreader-inline-stroke: none;"/><path id="path1" d="M149.724 201.600 C 149.724 209.447,149.758 212.657,149.800 208.733 C 149.841 204.810,149.841 198.390,149.800 194.467 C 149.758 190.543,149.724 193.753,149.724 201.600 M259.328 211.067 C 259.328 223.827,259.360 229.086,259.400 222.753 C 259.440 216.421,259.440 205.981,259.400 199.553 C 259.360 193.126,259.328 198.307,259.328 211.067 M149.725 251.467 C 149.725 259.753,149.759 263.143,149.800 259.000 C 149.841 254.857,149.841 248.077,149.800 243.933 C 149.759 239.790,149.725 243.180,149.725 251.467 M273.187 261.400 L 272.133 262.533 273.267 261.479 C 273.890 260.899,274.400 260.389,274.400 260.346 C 274.400 260.144,274.168 260.346,273.187 261.400 M269.721 321.600 C 269.721 327.247,269.756 329.557,269.800 326.733 C 269.843 323.910,269.843 319.290,269.800 316.467 C 269.756 313.643,269.721 315.953,269.721 321.600 " stroke="none" fill="#f4ecdc" fill-rule="evenodd" data-darkreader-inline-fill="" data-darkreader-inline-stroke="" style="--darkreader-inline-fill: #483717; --darkreader-inline-stroke: none;"/></g></svg>