<svg xmlns="http://www.w3.org/2000/svg" xmlns:xlink="http://www.w3.org/1999/xlink" id="svg" version="1.1" viewBox="95.72 160.27 214.68 103.59"><g id="svgg"><path id="path0" d="M99.794 164.867 L 99.867 169.467 109.658 169.537 L 119.449 169.607 118.725 170.637 C 118.326 171.204,117.280 172.659,116.400 173.870 C 115.520 175.082,114.627 176.326,114.415 176.636 C 114.203 176.946,113.633 177.700,113.148 178.312 C 112.663 178.923,112.267 179.501,112.267 179.597 C 112.267 179.693,112.076 179.962,111.842 180.196 C 111.609 180.429,110.739 181.570,109.909 182.732 C 106.594 187.370,105.939 188.282,104.400 190.399 C 103.520 191.610,102.410 193.156,101.933 193.834 C 101.455 194.512,100.914 195.247,100.729 195.467 C 99.222 197.259,99.200 197.343,99.200 201.308 L 99.200 205.067 116.406 205.067 L 133.613 205.067 133.540 200.467 L 133.467 195.867 123.130 195.733 L 112.794 195.600 115.199 192.267 C 116.521 190.433,118.301 187.973,119.155 186.800 C 120.660 184.730,124.691 179.164,128.230 174.267 C 129.184 172.947,130.663 170.915,131.516 169.751 L 133.067 167.636 133.067 163.951 L 133.067 160.267 116.394 160.267 L 99.721 160.267 99.794 164.867 M154.667 182.667 L 154.667 205.067 159.867 205.067 L 165.067 205.067 165.067 198.133 L 165.067 191.200 168.333 191.211 L 171.600 191.221 174.253 195.944 C 175.712 198.541,176.972 200.727,177.053 200.800 C 177.134 200.873,177.407 201.353,177.661 201.867 C 177.914 202.380,178.405 203.280,178.751 203.867 L 179.381 204.933 185.422 205.005 L 191.463 205.077 190.900 204.072 C 190.590 203.519,188.551 200.096,186.368 196.466 C 181.756 188.794,182.044 189.666,183.800 188.684 C 193.254 183.396,192.833 167.161,183.116 162.301 C 179.254 160.370,178.375 160.267,165.824 160.267 L 154.667 160.267 154.667 182.667 M208.000 167.733 L 208.000 173.333 257.467 173.333 L 306.933 173.333 306.933 167.733 L 306.933 162.133 257.467 162.133 L 208.000 162.133 208.000 167.733 M175.654 169.573 C 181.263 171.472,181.883 178.886,176.667 181.686 C 175.697 182.207,175.110 182.267,170.200 182.353 L 164.800 182.447 164.800 175.747 L 164.800 169.047 169.543 169.078 C 173.281 169.103,174.575 169.208,175.654 169.573 M213.536 213.067 L 213.606 235.467 218.803 235.467 L 224.000 235.467 224.000 226.533 L 224.000 217.600 226.733 217.581 C 228.237 217.571,229.903 217.509,230.437 217.443 C 231.407 217.325,231.408 217.326,232.367 219.262 C 232.894 220.328,234.003 222.460,234.831 224.000 C 235.659 225.540,237.335 228.720,238.554 231.067 L 240.771 235.333 246.908 235.405 L 253.045 235.476 251.946 233.538 C 251.342 232.472,250.251 230.520,249.522 229.200 C 248.792 227.880,247.788 226.080,247.289 225.200 C 246.790 224.320,246.202 223.240,245.982 222.800 C 245.762 222.360,245.250 221.400,244.844 220.667 C 240.670 213.120,240.843 213.519,241.476 212.886 C 242.383 211.979,243.951 209.341,244.856 207.200 C 246.098 204.260,247.514 200.739,247.591 200.400 C 247.624 200.253,247.777 199.833,247.930 199.467 C 248.082 199.100,248.649 197.660,249.189 196.267 C 249.728 194.873,250.458 193.043,250.810 192.200 L 251.451 190.667 245.868 190.667 C 240.683 190.667,240.266 190.702,240.018 191.167 C 239.871 191.441,239.199 193.211,238.524 195.100 C 237.850 196.988,237.023 199.253,236.686 200.133 C 236.350 201.013,236.001 202.039,235.912 202.412 C 235.025 206.136,231.495 207.988,225.267 207.998 L 224.000 208.000 224.000 199.333 L 224.000 190.667 218.733 190.667 L 213.467 190.667 213.536 213.067 M272.860 206.200 C 272.922 216.603,273.049 221.998,273.245 222.533 C 273.406 222.973,273.692 223.873,273.880 224.533 C 274.298 226.000,275.978 229.333,276.300 229.333 C 276.428 229.333,276.533 229.502,276.533 229.708 C 276.533 230.249,279.900 233.195,281.467 234.024 C 290.841 238.988,303.301 236.133,307.818 227.987 C 310.276 223.553,310.398 222.468,310.399 205.000 L 310.400 190.667 305.196 190.667 L 299.993 190.667 300.005 204.661 C 300.018 220.376,299.941 221.199,298.237 223.547 C 294.674 228.458,286.131 227.362,284.020 221.723 C 283.220 219.588,283.204 219.252,283.206 204.600 L 283.207 190.667 277.988 190.667 L 272.769 190.667 272.860 206.200 M95.795 230.333 L 95.867 235.867 145.400 235.934 L 194.933 236.001 194.933 230.401 L 194.933 224.800 145.328 224.800 L 95.723 224.800 95.795 230.333 M205.867 255.733 L 205.867 263.467 206.667 263.467 L 207.467 263.467 207.475 260.600 L 207.483 257.733 210.208 260.620 L 212.933 263.507 214.171 263.420 L 215.409 263.333 212.489 260.267 L 209.570 257.200 210.718 256.164 C 211.350 255.594,212.575 254.484,213.440 253.697 L 215.013 252.267 213.628 252.267 C 212.340 252.267,212.147 252.357,210.855 253.564 C 210.091 254.278,209.047 255.251,208.533 255.726 L 207.600 256.589 207.518 255.028 C 207.473 254.169,207.473 252.236,207.518 250.733 L 207.600 247.999 206.733 247.999 L 205.867 248.000 205.867 255.733 M248.267 250.164 L 248.267 252.328 246.861 252.153 C 245.666 252.003,245.267 252.077,244.195 252.648 C 242.988 253.289,242.933 253.295,242.933 252.792 C 242.933 252.369,242.751 252.267,242.000 252.267 L 241.067 252.267 241.067 257.867 L 241.067 263.467 242.000 263.467 L 242.933 263.467 242.933 259.974 C 242.933 254.899,243.608 253.867,246.925 253.867 L 248.267 253.867 248.267 258.012 C 248.267 263.110,248.458 263.467,251.188 263.467 L 252.800 263.467 252.800 262.667 C 252.800 261.912,252.740 261.867,251.743 261.867 C 250.279 261.867,250.133 261.459,250.133 257.351 L 250.133 253.867 251.400 253.867 C 252.630 253.867,252.667 253.843,252.667 253.067 C 252.667 252.290,252.630 252.267,251.400 252.267 L 250.133 252.267 250.133 250.133 L 250.133 248.000 249.200 248.000 L 248.267 248.000 248.267 250.164 M167.592 252.524 C 163.505 254.442,163.545 261.462,167.653 263.223 C 171.625 264.925,175.483 262.320,175.539 257.898 C 175.595 253.498,171.466 250.705,167.592 252.524 M180.486 252.336 C 180.151 252.460,179.665 252.754,179.405 252.989 C 178.968 253.385,178.933 253.374,178.933 252.841 C 178.933 252.349,178.781 252.267,177.867 252.267 L 176.800 252.267 176.800 257.867 L 176.800 263.467 177.886 263.467 L 178.972 263.467 178.931 260.333 C 178.908 258.610,178.900 256.879,178.912 256.487 C 178.945 255.381,180.109 254.196,181.413 253.940 C 182.427 253.740,182.541 253.638,182.617 252.854 C 182.708 251.923,182.041 251.761,180.486 252.336 M186.486 252.186 C 183.799 252.709,182.004 256.893,183.094 260.093 C 185.185 266.229,193.800 264.313,193.707 257.732 C 193.650 253.646,190.685 251.368,186.486 252.186 M197.467 252.493 C 196.237 253.082,195.672 253.694,195.256 254.887 L 194.961 255.733 196.009 255.733 C 196.886 255.733,197.082 255.631,197.214 255.107 C 197.725 253.068,202.133 253.535,202.133 255.629 C 202.133 256.293,202.149 256.286,199.067 256.941 C 195.534 257.692,194.667 258.405,194.667 260.557 C 194.667 263.536,199.032 265.005,201.334 262.800 L 202.133 262.034 202.133 262.750 C 202.133 263.411,202.218 263.467,203.223 263.467 L 204.314 263.467 204.223 259.267 C 204.125 254.677,203.893 253.872,202.337 252.712 C 201.291 251.932,198.865 251.823,197.467 252.493 M232.933 252.378 C 231.885 252.846,230.751 254.080,230.523 255.000 C 230.300 255.906,232.198 256.169,232.444 255.267 C 232.979 253.298,236.954 253.387,237.454 255.379 C 237.677 256.268,237.694 256.257,235.417 256.711 C 234.344 256.925,233.347 257.126,233.200 257.157 C 233.053 257.189,232.783 257.309,232.600 257.423 C 232.417 257.538,232.267 257.556,232.267 257.464 C 232.267 257.023,230.576 258.572,230.202 259.356 C 228.684 262.539,233.555 265.192,236.621 262.853 L 237.600 262.106 237.600 262.786 C 237.600 263.386,237.711 263.467,238.533 263.467 L 239.467 263.467 239.454 259.267 C 239.444 255.874,239.354 254.887,238.987 254.133 C 238.126 252.361,235.001 251.455,232.933 252.378 M154.716 253.000 L 154.800 253.733 158.119 253.867 L 161.438 254.000 160.145 255.467 C 159.435 256.273,158.101 257.773,157.181 258.800 C 156.262 259.827,155.260 260.955,154.955 261.307 C 154.650 261.660,154.400 262.290,154.400 262.707 L 154.400 263.467 159.200 263.467 L 164.000 263.467 164.000 262.674 L 164.000 261.882 160.530 261.808 L 157.060 261.733 157.663 261.060 C 157.995 260.689,158.790 259.789,159.430 259.060 C 160.069 258.330,160.925 257.373,161.331 256.933 C 163.306 254.796,164.000 253.784,164.000 253.041 L 164.000 252.267 159.316 252.267 L 154.631 252.267 154.716 253.000 M216.001 256.733 C 216.002 261.794,216.251 262.620,217.997 263.349 C 219.525 263.988,221.896 263.670,222.237 262.781 C 222.454 262.215,222.933 262.320,222.933 262.933 C 222.933 263.378,223.111 263.467,224.000 263.467 L 225.067 263.467 225.067 257.867 L 225.067 252.267 224.000 252.267 L 222.933 252.267 222.933 255.933 C 222.932 260.351,222.624 261.263,220.947 261.810 C 218.436 262.630,217.867 261.604,217.867 256.254 L 217.867 252.267 216.933 252.267 L 216.000 252.267 216.001 256.733 M171.901 254.314 C 173.499 255.361,174.107 257.918,173.208 259.812 C 171.690 263.012,167.549 262.578,166.625 259.122 C 165.629 255.398,168.945 252.377,171.901 254.314 M189.257 253.846 C 189.895 253.886,191.433 255.505,191.630 256.345 C 192.702 260.900,188.329 264.013,185.549 260.675 C 183.342 258.025,185.372 253.328,188.533 253.770 C 188.753 253.801,189.079 253.835,189.257 253.846 M202.133 258.862 C 202.133 261.231,198.744 262.985,197.079 261.478 C 195.642 260.177,196.731 258.985,200.000 258.282 C 202.096 257.831,202.133 257.842,202.133 258.862 M237.599 258.600 C 237.596 261.138,233.685 263.151,232.236 261.362 C 231.003 259.839,233.028 258.479,237.400 257.893 C 237.510 257.879,237.600 258.197,237.599 258.600 M226.720 261.653 C 226.277 262.096,226.320 262.815,226.819 263.314 C 227.652 264.147,228.867 263.684,228.867 262.533 C 228.867 261.444,227.493 260.881,226.720 261.653 " stroke="none" fill="#f4e4dc" fill-rule="evenodd" data-darkreader-inline-fill="" data-darkreader-inline-stroke="" style="--darkreader-inline-fill: #482617; --darkreader-inline-stroke: none;"/><path id="path1" d="M207.846 167.867 C 207.846 170.947,207.885 172.170,207.932 170.586 C 207.980 169.001,207.980 166.481,207.932 164.986 C 207.885 163.490,207.846 164.787,207.846 167.867 M213.461 213.200 C 213.461 225.520,213.493 230.521,213.533 224.313 C 213.573 218.106,213.573 208.026,213.533 201.913 C 213.493 195.801,213.461 200.880,213.461 213.200 M224.727 207.926 C 225.201 207.985,226.041 207.986,226.594 207.928 C 227.147 207.870,226.760 207.822,225.733 207.821 C 224.707 207.820,224.254 207.867,224.727 207.926 M195.046 230.533 C 195.046 233.613,195.085 234.837,195.132 233.252 C 195.180 231.668,195.180 229.148,195.132 227.652 C 195.085 226.157,195.046 227.453,195.046 230.533 M205.718 255.867 C 205.718 260.120,205.755 261.823,205.800 259.650 C 205.844 257.478,205.844 253.998,205.799 251.917 C 205.754 249.836,205.718 251.613,205.718 255.867 M207.575 252.400 C 207.575 254.747,207.616 255.671,207.665 254.454 C 207.715 253.237,207.715 251.317,207.665 250.187 C 207.615 249.058,207.574 250.053,207.575 252.400 M207.566 260.667 C 207.567 262.280,207.611 262.906,207.664 262.057 C 207.717 261.208,207.717 259.888,207.663 259.124 C 207.609 258.359,207.566 259.053,207.566 260.667 " stroke="none" fill="#f4ecdc" fill-rule="evenodd" data-darkreader-inline-fill="" data-darkreader-inline-stroke="" style="--darkreader-inline-fill: #483717; --darkreader-inline-stroke: none;"/><path id="path2" d="M307.046 167.733 C 307.046 170.740,307.085 171.970,307.132 170.467 C 307.180 168.963,307.180 166.503,307.132 165.000 C 307.085 163.497,307.046 164.727,307.046 167.733 M215.837 255.600 C 215.837 257.507,215.880 258.252,215.931 257.256 C 215.983 256.259,215.982 254.699,215.930 253.789 C 215.879 252.878,215.836 253.693,215.837 255.600 " stroke="none" fill="#f8e4dc" fill-rule="evenodd" data-darkreader-inline-fill="" data-darkreader-inline-stroke="" style="--darkreader-inline-fill: #4c2010; --darkreader-inline-stroke: none;"/><path id="path3" d="M307.046 167.733 C 307.046 170.740,307.085 171.970,307.132 170.467 C 307.180 168.963,307.180 166.503,307.132 165.000 C 307.085 163.497,307.046 164.727,307.046 167.733 M215.837 255.600 C 215.837 257.507,215.880 258.252,215.931 257.256 C 215.983 256.259,215.982 254.699,215.930 253.789 C 215.879 252.878,215.836 253.693,215.837 255.600 " stroke="none" fill="#f8e4dc" fill-rule="evenodd" data-darkreader-inline-fill="" data-darkreader-inline-stroke="" style="--darkreader-inline-fill: #4c2010; --darkreader-inline-stroke: none;"/><path id="path4" d="M307.046 167.733 C 307.046 170.740,307.085 171.970,307.132 170.467 C 307.180 168.963,307.180 166.503,307.132 165.000 C 307.085 163.497,307.046 164.727,307.046 167.733 M215.837 255.600 C 215.837 257.507,215.880 258.252,215.931 257.256 C 215.983 256.259,215.982 254.699,215.930 253.789 C 215.879 252.878,215.836 253.693,215.837 255.600 " stroke="none" fill="#f8e4dc" fill-rule="evenodd" data-darkreader-inline-fill="" data-darkreader-inline-stroke="" style="--darkreader-inline-fill: #4c2010; --darkreader-inline-stroke: none;"/></g></svg>